<?xml version="1.0" encoding="UTF-8"?>
<svg id="EN" xmlns="http://www.w3.org/2000/svg" width="1147.626" height="391.656" viewBox="0 0 1147.626 391.656">
  <defs>
    <style>
      .cls-1 {
        fill: #fff;
      }

      .cls-2 {
        fill: #ec1c24;
      }
    </style>
  </defs>
  <g>
    <path d="M195.828,391.656c108.153,0,195.828-87.675,195.828-195.828S303.98,0,195.828,0,0,87.675,0,195.828s87.676,195.828,195.828,195.828Z"/>
    <path class="cls-2" d="M306.372,178.636c-6.593-49.116-45.274-86.085-94.463-93.079-4.735-.674-9.561-1.056-14.478-1.111h-.474c-4.917-.055-9.743.219-14.496.783-49.335,5.864-88.908,44.054-96.612,93.006-.273,1.694,1.056,3.223,2.768,3.242l61.646.71c1.238,0,2.313-.783,2.732-1.949,4.753-13.149,15.389-23.42,28.683-27.754,4.571-1.493,9.47-2.276,14.533-2.222h.437c5.081.055,9.944.965,14.478,2.55,13.203,4.626,23.602,13.549,28.046,26.789.401,1.166,1.457,1.985,2.695,2.003l61.646.182c1.712.018,3.078-1.475,2.841-3.169l.018.018Z"/>
    <path class="cls-1" d="M364.102,193.315c-1.257-89.418-73.447-162.829-162.847-165.597C105.881,24.768,27.026,101.875,27.845,197.267c.765,89.254,72.336,163.047,161.536,166.507,33.964,1.311,65.871-7.54,92.897-23.766,1.184-.71,1.384-2.349.419-3.351l-22.837-22.783c-.656-.674-1.694-.838-2.531-.382-18.867,9.943-39.992,15.316-62.775,15.079-75.614-.82-136.003-64.997-131.104-141.449,4.316-67.291,59.369-121.179,126.734-124.038,76.525-3.26,139.409,58.495,138.589,134.109-.31,29.448-10.271,56.565-26.789,78.437-.674.419-1.73.455-2.55-.364-.073,0-21.69-21.963-21.69-21.963-1.821-1.858-2.021-2.768.055-4.808l33.072-33.036c1.075-1.074.455-2.914-1.566-2.914l-93.461-.291c-1.876-.018-2.185.255-2.222,2.131l.055,90.456c-.036,3.023,2.331,3.624,3.679,2.295l30.814-29.867c1.839-1.803,2.677-1.93,4.189-.546l47.35,47.623c1.202,1.202,3.205,1.366,4.48.091.364-.364.783-.747,1.166-1.111,36.478-31.324,59.46-77.982,58.732-130.012h.018Z"/>
    <path class="cls-1" d="M181.022,240.373c0-1.056-.637-1.967-1.621-2.349-2.222-.874-4.371-1.93-6.41-3.132-6.228-3.679-11.51-8.796-15.352-14.897-1.676-2.659-1.257-1.785-2.896-4.535-1.111-1.839-1.42-2.987-3.515-3.005l-61.883-.036c-1.676-.018-2.95,1.293-2.677,2.95,1.111,6.993.692,4.516,1.785,8.669,10.508,40.102,42.888,71.444,83.755,80.367,1.712.364,3.424.71,5.172,1.002,1.53.255,2.932-.892,2.95-2.422l.71-62.629-.018.018Z"/>
    <path class="cls-1" d="M200.417,196.411l17.592.2.31-.31c.346-13.294-10.927-24.112-24.476-22.855-10.362.965-18.849,9.251-20.051,19.596-1.566,13.495,8.924,25.004,22.163,25.023l.346-.346-.219-17.064c.018-2.367,1.967-4.261,4.334-4.243Z"/>
  </g>
  <g>
    <g>
      <path d="M433.272,74.663h-5.855c-.713,0-1.299.587-1.299,1.299v14.965c0,.713-.587,1.299-1.299,1.299h-11.863c-.713,0-1.299-.587-1.299-1.299v-49.436c0-.713.587-1.299,1.299-1.299h20.316c12.911,0,19.478,7.308,19.478,17.34,0,9.082-6.274,17.117-19.478,17.117v.014ZM431.875,63.149c4.36,0,6.12-2.208,6.12-5.603,0-3.465-1.775-5.687-6.12-5.687h-4.457c-.713,0-1.299.587-1.299,1.299v8.691c0,.713.587,1.299,1.299,1.299h4.457Z"/>
      <path d="M482.247,92.73c-14.755,0-26.716-11.066-26.716-26.716s11.961-26.632,26.716-26.632,26.632,10.997,26.632,26.632-11.877,26.716-26.632,26.716ZM482.247,79.302c7.447,0,11.947-5.24,11.947-13.288,0-8.188-4.499-13.358-11.947-13.358-7.531,0-11.961,5.17-11.961,13.358,0,8.048,4.429,13.288,11.961,13.288Z"/>
      <path d="M527.281,71.058v19.855c0,.713-.587,1.299-1.299,1.299h-11.863c-.713,0-1.299-.587-1.299-1.299v-49.422c0-.713.587-1.299,1.299-1.299h11.863c.713,0,1.299.587,1.299,1.299v19.492c0,.517.657.727.95.307l14.811-20.568c.238-.335.643-.545,1.048-.545h13.4c1.076,0,1.677,1.23,1.034,2.082l-16.949,22.37c-.349.461-.349,1.104,0,1.565l17.927,23.921c.643.852.028,2.082-1.034,2.082h-14.224c-.419,0-.81-.196-1.062-.545l-14.965-20.917c-.293-.419-.95-.21-.95.307l.014.014Z"/>
      <path d="M595.817,51.789h-16.222c-.713,0-1.299.587-1.299,1.299v5.883c0,.713.587,1.299,1.299,1.299h14.001c.713,0,1.299.587,1.299,1.299v8.398c0,.713-.587,1.299-1.299,1.299h-14.001c-.713,0-1.299.587-1.299,1.299v6.777c0,.713.587,1.299,1.299,1.299h16.222c.713,0,1.299.587,1.299,1.299v8.984c0,.713-.587,1.299-1.299,1.299h-30.684c-.713,0-1.299-.587-1.299-1.299v-49.436c0-.713.587-1.299,1.299-1.299h30.684c.713,0,1.299.587,1.299,1.299v8.984c0,.713-.587,1.299-1.299,1.299v.014ZM589.138,21.035v8.02c0,.531-.321,1.02-.824,1.216l-15.845,6.218c-.852.335-1.775-.293-1.775-1.216v-7.07c0-.517.293-.978.768-1.188l15.845-7.168c.866-.391,1.83.238,1.83,1.188Z"/>
      <path d="M604.285,40.192h15.3c.531,0,1.02.335,1.216.824l12.1,31.313c.224.573,1.048.573,1.258,0l11.821-31.299c.196-.503.671-.838,1.216-.838h15.216c.713,0,1.299.587,1.299,1.299v49.422c0,.713-.587,1.299-1.299,1.299h-11.863c-.713,0-1.299-.587-1.299-1.299v-23.893c0-.657-.922-.81-1.132-.196l-8.37,24.494c-.182.531-.671.88-1.23.88h-10.242c-.559,0-1.048-.349-1.23-.88l-8.454-24.718c-.21-.629-1.132-.475-1.132.196v24.117c0,.713-.587,1.299-1.299,1.299h-11.863c-.713,0-1.299-.587-1.299-1.299v-49.422c0-.713.587-1.299,1.299-1.299h-.014Z"/>
      <path d="M695.15,92.73c-14.755,0-26.716-11.066-26.716-26.716s11.947-26.632,26.716-26.632,26.632,10.997,26.632,26.632-11.877,26.716-26.632,26.716ZM695.15,79.302c7.447,0,11.947-5.24,11.947-13.288,0-8.188-4.499-13.358-11.947-13.358-7.531,0-11.961,5.17-11.961,13.358,0,8.048,4.429,13.288,11.961,13.288Z"/>
      <path d="M772.81,41.492v49.422c0,.713-.587,1.299-1.3,1.299h-13.721c-.461,0-.894-.252-1.132-.657l-15.663-27.359c-.168-.293-.601-.168-.601.154v26.562c0,.713-.587,1.299-1.299,1.299h-11.863c-.713,0-1.299-.587-1.299-1.299v-49.422c0-.713.587-1.299,1.299-1.299h12.422c.461,0,.88.238,1.118.629l16.949,28.449c.168.279.601.168.601-.168l.098-27.624c0-.713.587-1.299,1.299-1.299h11.793c.713,0,1.3.587,1.3,1.299v.014Z"/>
      <path d="M787.909,81.443h-3.638v10.7h-2.876v-10.7h-3.639v-2.563h10.133v2.563h.02ZM803.148,92.143h-2.602v-10.7h-.059l-3.462,10.7h-1.545l-3.462-10.7h-.059v10.7h-2.602v-13.283h4.206l2.7,7.844,2.68-7.844h4.206v13.283Z"/>
    </g>
    <g>
      <path d="M399.656,294.036c0-11.473,2.469-21.64,7.407-30.499,4.938-9.004,11.764-15.976,20.623-20.914,8.859-4.938,18.88-7.552,30.063-7.552s25.416,3.631,35.146,10.892c9.295,6.826,15.54,16.121,19.026,27.74.29.871-.436,1.888-1.307,1.888h-28.175c-.581,0-1.017-.29-1.307-.871-2.324-4.502-5.374-7.843-9.44-10.166-4.212-2.614-8.859-3.776-14.233-3.776-8.714,0-15.685,3.05-21.059,9.004-5.374,5.955-7.988,14.088-7.988,24.109s2.759,18.154,7.988,24.109c5.374,5.955,12.49,9.004,21.059,9.004s10.166-1.307,14.233-3.776c4.067-2.469,7.116-5.664,9.44-10.166.29-.436.726-.871,1.307-.871h28.175c1.017,0,1.598.871,1.307,1.743-3.486,11.619-9.731,20.914-19.026,27.74-9.731,7.116-21.495,10.747-35.146,10.747s-21.204-2.469-30.063-7.407c-8.714-4.938-15.54-12.054-20.623-20.914-4.793-8.859-7.407-19.026-7.407-30.499h0v.436Z"/>
      <path d="M712.504,350.968c0,.871-.581,1.452-1.452,1.452h-26.287c-.436,0-.871-.29-1.162-.581l-46.039-69.712c-.436-.581-1.307-.29-1.307.436v68.405c0,.871-.581,1.452-1.452,1.452h-25.706c-.871,0-1.452-.581-1.452-1.452v-114.444c0-.871.581-1.452,1.452-1.452h26.287c.436,0,1.017.29,1.162.581l46.039,70.002c.436.581,1.307.29,1.307-.436v-68.841c0-.871.581-1.452,1.452-1.452h25.706c.871,0,1.452.581,1.452,1.452v114.299h0v.29Z"/>
      <path d="M1116.48,323.809h-32.097v-87.14c0-.871-.581-1.452-1.452-1.452h-25.706c-.871,0-1.452.581-1.452,1.452v114.299c0,.871.581,1.452,1.452,1.452h59.255c.871,0,1.452-.581,1.452-1.452v-25.706c0-.871-.581-1.452-1.452-1.452h0Z"/>
      <path d="M553.866,258.018c-.871,0-1.452.581-1.452,1.452v20.768c0,.871.581,1.452,1.452,1.452h35.292c.871,0,1.452.581,1.452,1.452v19.171c0,.871-.581,1.452-1.452,1.452h-35.292c-.871,0-1.452.581-1.452,1.452v22.802c0,.871.581,1.452,1.452,1.452h40.375c.871,0,1.452.581,1.452,1.452v20.042c0,.871-.581,1.452-1.452,1.452h-68.841c-.871,0-1.452-.581-1.452-1.452v-114.299c0-.871.581-1.452,1.452-1.452h68.841c.871,0,1.452.581,1.452,1.452v20.042c0,.871-.581,1.452-1.452,1.452h-40.375v-.145Z"/>
      <path d="M887.187,352.129c-.581,0-1.017-.29-1.307-.726l-23.528-42.699c-.29-.436-.726-.726-1.307-.726h-5.228c-.436,0-.726.29-.726.726v42.118c0,.871-.581,1.452-1.452,1.452h-25.706c-.871,0-1.452-.581-1.452-1.452v-114.299c0-.871.581-1.452,1.452-1.452h46.475c9.295,0,17.138,1.598,23.528,4.793,6.535,3.195,11.473,7.697,14.669,13.361,3.195,5.519,4.793,11.764,4.793,18.735s-2.178,14.814-6.681,20.914c-4.067,5.664-9.876,9.876-17.573,12.49-.871.29-1.307,1.307-.871,2.178l24.835,42.699c.581,1.017,0,2.178-1.307,2.178h-28.901l.29-.29h0ZM855.091,286.194c0,.871.581,1.452,1.452,1.452h16.266c5.228,0,9.15-1.307,11.619-3.776,2.614-2.614,4.067-6.245,4.067-10.892s-1.307-7.988-4.067-10.457c-2.614-2.614-6.39-3.776-11.619-3.776h-16.266c-.871,0-1.452.581-1.452,1.452v26.142h0v-.145Z"/>
      <path d="M813.775,235.071c.871,0,1.452.581,1.452,1.452v20.042c0,.871-.581,1.452-1.452,1.452h-28.175c-.871,0-1.452.581-1.452,1.452v91.497c0,.871-.581,1.452-1.452,1.452h-25.706c-.871,0-1.452-.581-1.452-1.452v-91.497c0-.871-.581-1.452-1.452-1.452h-28.175c-.871,0-1.452-.581-1.452-1.452v-20.042c0-.871.581-1.452,1.452-1.452h87.866Z"/>
      <path d="M1008.662,332.644c-.145-.582-.727-1.018-1.309-1.018h-41.734c-.582,0-1.163.436-1.309,1.018l-6.398,18.758c-.145.582-.727,1.018-1.309,1.018h-26.756c-1.018,0-1.745-1.018-1.309-1.89l41.443-114.44c.145-.582.727-1.018,1.309-1.018h31.118c.582,0,1.163.436,1.309,1.018l41.443,114.44c.291,1.018-.291,1.89-1.309,1.89h-27.192c-.582,0-1.163-.436-1.309-1.018l-6.398-18.758h-.291ZM999.937,309.523c.436,0,.872-.436.727-1.018l-13.523-39.989c-.291-.727-1.163-.727-1.309,0l-13.378,39.989c-.145.436.145,1.018.727,1.018h26.901-.145Z"/>
    </g>
    <g>
      <path d="M1067.637,222.328c-.529,0-1.015-.287-1.27-.749l-23.507-42.667c-.255-.464-.741-.751-1.27-.751h-5.252c-.4,0-.725.325-.725.725v41.993c0,.8-.649,1.449-1.449,1.449h-25.602c-.8,0-1.449-.649-1.449-1.449v-114.101c0-.8.649-1.449,1.449-1.449h46.384c9.222,0,17.055,1.611,23.5,4.833,6.555,3.222,11.445,7.667,14.667,13.333,3.222,5.556,4.833,11.778,4.833,18.667,0,7.778-2.222,14.723-6.667,20.833-4.032,5.686-9.891,9.833-17.578,12.441-.888.301-1.3,1.341-.828,2.151l24.803,42.564c.562.965-.135,2.178-1.252,2.178h-28.788ZM1035.614,156.545c0,.8.649,1.449,1.449,1.449h16.217c5.222,0,9.112-1.277,11.667-3.833,2.667-2.556,4-6.167,4-10.833,0-4.444-1.333-7.945-4-10.5-2.555-2.556-6.445-3.833-11.667-3.833h-16.217c-.8,0-1.449.649-1.449,1.449v26.101Z"/>
      <path d="M947.321,128.161c-.801,0-1.449.649-1.449,1.449v20.768c0,.8.648,1.449,1.449,1.449h35.268c.8,0,1.449.649,1.449,1.449v19.101c0,.8-.649,1.449-1.449,1.449h-35.268c-.801,0-1.449.649-1.449,1.449v22.768c0,.8.648,1.449,1.449,1.449h40.268c.8,0,1.449.649,1.449,1.449v19.935c0,.8-.649,1.449-1.449,1.449h-68.768c-.801,0-1.449-.649-1.449-1.449v-114.101c0-.8.648-1.449,1.449-1.449h68.768c.8,0,1.449.649,1.449,1.449v19.935c0,.8-.649,1.449-1.449,1.449h-40.268Z"/>
      <path d="M899.296,220.879c0,.8-.649,1.449-1.449,1.449h-26.271c-.487,0-.942-.243-1.21-.651l-45.907-69.503c-.396-.6-1.329-.319-1.329.399v68.305c0,.8-.649,1.449-1.449,1.449h-25.602c-.801,0-1.449-.649-1.449-1.449v-114.101c0-.8.648-1.449,1.449-1.449h26.268c.488,0,.943.245,1.212.653l45.907,69.824c.396.601,1.33.322,1.33-.397v-68.63c0-.8.648-1.449,1.449-1.449h25.602c.8,0,1.449.649,1.449,1.449v114.101Z"/>
      <path d="M775.104,105.328c.801,0,1.449.649,1.449,1.449v114.101c0,.8-.648,1.449-1.449,1.449h-25.601c-.8,0-1.449-.649-1.449-1.449v-114.101c0-.8.649-1.449,1.449-1.449h25.601Z"/>
      <path d="M701.56,202.645c-.2-.588-.752-.984-1.372-.984h-41.589c-.622,0-1.174.396-1.372.984l-6.333,18.699c-.2.588-.752.984-1.372.984h-26.729c-1.004,0-1.704-.997-1.362-1.942l41.284-114.102c.207-.574.752-.956,1.362-.956h30.967c.61,0,1.155.382,1.362.956l41.286,114.102c.342.945-.358,1.942-1.364,1.942h-27.061c-.622,0-1.174-.396-1.372-.984l-6.333-18.699ZM692.883,179.661c.496,0,.845-.487.685-.957l-13.486-39.837c-.223-.658-1.154-.656-1.374.002l-13.33,39.838c-.157.468.193.954.687.954h26.817Z"/>
      <path d="M580.755,222.328c-.529,0-1.014-.287-1.27-.749l-23.507-42.667c-.255-.464-.741-.751-1.27-.751h-5.252c-.4,0-.725.325-.725.725v41.993c0,.8-.649,1.449-1.449,1.449h-25.602c-.8,0-1.449-.649-1.449-1.449v-114.101c0-.8.649-1.449,1.449-1.449h46.384c9.222,0,17.055,1.611,23.5,4.833,6.555,3.222,11.445,7.667,14.667,13.333,3.222,5.556,4.833,11.778,4.833,18.667,0,7.778-2.222,14.723-6.667,20.833-4.032,5.686-9.891,9.833-17.578,12.441-.888.301-1.3,1.341-.828,2.151l24.803,42.564c.562.965-.135,2.178-1.252,2.178h-28.788ZM548.732,156.545c0,.8.649,1.449,1.449,1.449h16.217c5.222,0,9.112-1.277,11.667-3.833,2.667-2.556,4-6.167,4-10.833,0-4.444-1.333-7.945-4-10.5-2.555-2.556-6.445-3.833-11.667-3.833h-16.217c-.8,0-1.449.649-1.449,1.449v26.101Z"/>
      <path d="M500.707,105.328c.8,0,1.449.649,1.449,1.449v19.935c0,.8-.649,1.449-1.449,1.449h-28.102c-.8,0-1.449.649-1.449,1.449v91.268c0,.8-.649,1.449-1.449,1.449h-25.602c-.8,0-1.449-.649-1.449-1.449v-91.268c0-.8-.649-1.449-1.449-1.449h-28.102c-.8,0-1.449-.649-1.449-1.449v-19.935c0-.8.649-1.449,1.449-1.449h87.602Z"/>
    </g>
  </g>
</svg>